# xmcd
#
# Track frame offsets:
#	150
#	13179
#	29857
#	42642
#	53554
#	71049
#	91346
#	104863
#	119503
#	133178
#	144930
#	157855
#	175370
#	190419
#	203887
#	216459
#	230621
#	242506
#	255812
#	270117
#	281829
#	292576
#	306658
#	319769
#	333049
#
# Disc length: 4611 seconds
#
# Revision: 4
# Processed by: cddbd v1.5.2PL0 Copyright (c) Steve Scherf et al.
# Submitted via: audiograbber 1.83.01
#
DISCID=7c120119
DTITLE=Boogie Woogie Classics - Boogie Woogie Classics - Shout for Joy
DYEAR=1945
DGENRE=Jazz Piano
TTITLE0=Meade Lux Lewis and Albert Ammons - Cavalcade Of Boogie
TTITLE1=Albert Ammons - Boogie Woogie
TTITLE2=Pete Johnson and Joe Turner - Roll 'Em Pete
TTITLE3=Albert Ammons - Shout For Joy
TTITLE4=Albert Ammons - Chicago In Mind
TTITLE5=Meade Lux Lewis and Albert Ammons - Twos And Fews
TTITLE6=Harry James (feat. Pete Johnson) - Boo-Woo
TTITLE7=Harry james (feat.Albert Ammons) - Woo-Woo
TTITLE8=Pete Johnson - Baby, Look At You
TTITLE9=Joe Sullivan - Boogie Woogie Maxixe
TTITLE10=Jimmy Yancey - Yancey Stomp
TTITLE11=Pete Johnson - Holler Stomp
TTITLE12=Erskine Hawkins and His Orchestra (feat. Avery Parrish) - After Hours
TTITLE13=Champion Jack Dupree - Cabbage Greens No. 1
TTITLE14=Charlie Spand - Soon This Morning No. 2
TTITLE15=Benny Carter and His Orchestra (feat. Sonny White) - Boogie Woogie Sugar
TTITLE15=Blues
TTITLE16=Sammy price - Jumpin' The Boogie
TTITLE17=Louis Jordan and His Timpany Five - Pinetop's Boogie Woogie
TTITLE18=Buddy Johnson - Boogie Woogie's Mother-In-Law
TTITLE19=Jay McShann - Vine Street Boogie
TTITLE20=Count Basie - Basie Boogie
TTITLE21=Pete Johnson - Death Ray Boogie
TTITLE22=Pete Johnson - Basement Boogie
TTITLE23=Benny Carter and His Orchestra (feat. Sonny White) - Back Bay Boogie
TTITLE24=Kenny Kersey - Boogie Woogie Cocktail
EXTD=
EXTT0=
EXTT1=
EXTT2=
EXTT3=
EXTT4=
EXTT5=
EXTT6=
EXTT7=
EXTT8=
EXTT9=
EXTT10=
EXTT11=
EXTT12=
EXTT13=
EXTT14=
EXTT15=
EXTT16=
EXTT17=
EXTT18=
EXTT19=
EXTT20=
EXTT21=
EXTT22=
EXTT23=
EXTT24=
PLAYORDER=
